<svg width="17" height="17" viewBox="0 0 17 17" fill="none" xmlns="http://www.w3.org/2000/svg">
<path d="M15.89 17L13.8648 14.9748H3.58305C3.15464 14.9748 2.7879 14.8223 2.48282 14.5172C2.17774 14.2121 2.0252 13.8454 2.0252 13.417V3.13517L0 1.10997L1.10997 0L17 15.89L15.89 17ZM16.0458 12.7159L12.3459 9.01604L14.488 6.60137V4.26461L11.236 7.90607L4.28408 0.954181H14.488C14.9164 0.954181 15.2831 1.10672 15.5882 1.4118C15.8933 1.71688 16.0458 2.08362 16.0458 2.51203V12.7159ZM3.58305 11.8202L6.69874 8.70447L9.85338 11.8591L10.2818 11.3918L6.03666 7.14662L3.58305 9.60023V11.8202Z" fill="#A6A6A6"/>
</svg>
