<svg width="20" height="19" viewBox="0 0 20 19" fill="none" xmlns="http://www.w3.org/2000/svg">
<path d="M2.11905 15.5C1.45238 14.6746 0.93254 13.75 0.559524 12.7262C0.186508 11.7024 0 10.619 0 9.47619C0 6.98413 0.821429 4.84127 2.46429 3.04762C4.10714 1.25397 6.14286 0.238095 8.57143 0V1.90476C6.66667 2.12698 5.07937 2.95238 3.80952 4.38095C2.53968 5.80952 1.90476 7.50794 1.90476 9.47619C1.90476 10.3651 2.03968 11.2024 2.30952 11.9881C2.57937 12.7738 2.96825 13.4921 3.47619 14.1429L2.11905 15.5ZM9.52381 19C8.36508 19 7.26984 18.8095 6.2381 18.4286C5.20635 18.0476 4.27778 17.5159 3.45238 16.8333L4.78571 15.4762C5.43651 15.9841 6.1627 16.381 6.96429 16.6667C7.76587 16.9524 8.61905 17.0952 9.52381 17.0952C10.4286 17.0952 11.2817 16.9524 12.0833 16.6667C12.8849 16.381 13.6111 15.9841 14.2619 15.4762L15.5952 16.8333C14.7698 17.5159 13.8413 18.0476 12.8095 18.4286C11.7778 18.8095 10.6825 19 9.52381 19ZM16.9286 15.5L15.5714 14.1429C16.0794 13.4921 16.4683 12.7738 16.7381 11.9881C17.0079 11.2024 17.1429 10.3651 17.1429 9.47619C17.1429 7.50794 16.5079 5.80952 15.2381 4.38095C13.9683 2.95238 12.381 2.12698 10.4762 1.90476V0C12.9048 0.238095 14.9405 1.25397 16.5833 3.04762C18.2262 4.84127 19.0476 6.98413 19.0476 9.47619C19.0476 10.619 18.8611 11.7024 18.4881 12.7262C18.1151 13.75 17.5952 14.6746 16.9286 15.5ZM7.14286 13.7619V5.19048L13.8095 9.47619L7.14286 13.7619Z" fill="white"/>
</svg>
