<svg width="11" height="15" viewBox="0 0 11 15" fill="none" xmlns="http://www.w3.org/2000/svg">
<path d="M5.5 9.47368C4.84524 9.47368 4.28869 9.24342 3.83036 8.78289C3.37202 8.32237 3.14286 7.76316 3.14286 7.10526V2.36842C3.14286 1.71053 3.37202 1.15132 3.83036 0.690789C4.28869 0.230263 4.84524 0 5.5 0C6.15476 0 6.71131 0.230263 7.16964 0.690789C7.62798 1.15132 7.85714 1.71053 7.85714 2.36842V7.10526C7.85714 7.76316 7.62798 8.32237 7.16964 8.78289C6.71131 9.24342 6.15476 9.47368 5.5 9.47368ZM4.71429 15V12.5724C3.35238 12.3882 2.22619 11.7763 1.33571 10.7368C0.445238 9.69737 0 8.48684 0 7.10526H1.57143C1.57143 8.19737 1.95446 9.12829 2.72054 9.89803C3.48661 10.6678 4.4131 11.0526 5.5 11.0526C6.58691 11.0526 7.51339 10.6678 8.27946 9.89803C9.04554 9.12829 9.42857 8.19737 9.42857 7.10526H11C11 8.48684 10.5548 9.69737 9.66429 10.7368C8.77381 11.7763 7.64762 12.3882 6.28571 12.5724V15H4.71429Z" fill="#DD730E"/>
</svg>
