<svg width="25" height="29" viewBox="0 0 25 29" fill="none" xmlns="http://www.w3.org/2000/svg">
<path d="M12.5 29C10.7639 29 9.13773 28.672 7.62153 28.0161C6.10532 27.3601 4.78588 26.474 3.66319 25.3577C2.54051 24.2415 1.64931 22.9296 0.989583 21.422C0.329861 19.9145 0 18.2976 0 16.5714C0 14.8452 0.329861 13.2284 0.989583 11.7208C1.64931 10.2133 2.54051 8.90139 3.66319 7.78512C4.78588 6.66885 6.10532 5.78274 7.62153 5.12679C9.13773 4.47083 10.7639 4.14286 12.5 4.14286H12.7083L10.5556 2.00238L12.5 0L18.0556 5.52381L12.5 11.0476L10.5556 9.04524L12.7083 6.90476H12.5C9.79167 6.90476 7.49421 7.84266 5.60764 9.71845C3.72107 11.5942 2.77778 13.8786 2.77778 16.5714C2.77778 19.2643 3.72107 21.5486 5.60764 23.4244C7.49421 25.3002 9.79167 26.2381 12.5 26.2381C15.2083 26.2381 17.5058 25.3002 19.3924 23.4244C21.2789 21.5486 22.2222 19.2643 22.2222 16.5714H25C25 18.2976 24.6701 19.9145 24.0104 21.422C23.3507 22.9296 22.4595 24.2415 21.3368 25.3577C20.2141 26.474 18.8947 27.3601 17.3785 28.0161C15.8623 28.672 14.2361 29 12.5 29ZM9.02778 20.7143V18.6429H13.1944V17.2619H9.02778V12.4286H15.2778V14.5H11.1111V15.881H13.8889C14.2824 15.881 14.6123 16.0133 14.8785 16.278C15.1447 16.5427 15.2778 16.8706 15.2778 17.2619V19.3333C15.2778 19.7246 15.1447 20.0526 14.8785 20.3173C14.6123 20.5819 14.2824 20.7143 13.8889 20.7143H9.02778Z" fill="#DB8F5A"/>
</svg>
