<svg width="15" height="15" viewBox="0 0 15 15" fill="none" xmlns="http://www.w3.org/2000/svg">
<path d="M7.5 7.5C6.46875 7.5 5.58594 7.13281 4.85156 6.39844C4.11719 5.66406 3.75 4.78125 3.75 3.75C3.75 2.71875 4.11719 1.83594 4.85156 1.10156C5.58594 0.367188 6.46875 0 7.5 0C8.53125 0 9.41406 0.367188 10.1484 1.10156C10.8828 1.83594 11.25 2.71875 11.25 3.75C11.25 4.78125 10.8828 5.66406 10.1484 6.39844C9.41406 7.13281 8.53125 7.5 7.5 7.5ZM0 15V12.375C0 11.8438 0.136719 11.3555 0.410156 10.9102C0.683594 10.4648 1.04688 10.125 1.5 9.89062C2.46875 9.40625 3.45312 9.04297 4.45312 8.80078C5.45312 8.55859 6.46875 8.4375 7.5 8.4375C8.53125 8.4375 9.54688 8.55859 10.5469 8.80078C11.5469 9.04297 12.5312 9.40625 13.5 9.89062C13.9531 10.125 14.3164 10.4648 14.5898 10.9102C14.8633 11.3555 15 11.8438 15 12.375V15H0Z" fill="#DD730E"/>
</svg>
