<svg width="18" height="14" viewBox="0 0 18 14" fill="none" xmlns="http://www.w3.org/2000/svg">
<path d="M0 13.8V11.385C0 10.8962 0.114347 10.447 0.34304 10.0373C0.571733 9.62766 0.875568 9.315 1.25455 9.09937C2.06477 8.65375 2.88807 8.31953 3.72443 8.09672C4.5608 7.87391 5.41023 7.7625 6.27273 7.7625C7.13523 7.7625 7.98466 7.87391 8.82102 8.09672C9.65739 8.31953 10.4807 8.65375 11.2909 9.09937C11.6699 9.315 11.9737 9.62766 12.2024 10.0373C12.4311 10.447 12.5455 10.8962 12.5455 11.385V13.8H0ZM14.1136 13.8V11.2125C14.1136 10.58 13.9536 9.97266 13.6334 9.39047C13.3132 8.80828 12.8591 8.30875 12.271 7.89187C12.9375 7.97812 13.5648 8.12547 14.1528 8.33391C14.7409 8.54234 15.2898 8.7975 15.7994 9.09937C16.2699 9.38687 16.6293 9.70672 16.8776 10.0589C17.1259 10.4111 17.25 10.7956 17.25 11.2125V13.8H14.1136ZM6.27273 6.9C5.41023 6.9 4.67188 6.56219 4.05767 5.88656C3.44347 5.21094 3.13636 4.39875 3.13636 3.45C3.13636 2.50125 3.44347 1.68906 4.05767 1.01344C4.67188 0.337812 5.41023 0 6.27273 0C7.13523 0 7.87358 0.337812 8.48778 1.01344C9.10199 1.68906 9.40909 2.50125 9.40909 3.45C9.40909 4.39875 9.10199 5.21094 8.48778 5.88656C7.87358 6.56219 7.13523 6.9 6.27273 6.9ZM14.1136 3.45C14.1136 4.39875 13.8065 5.21094 13.1923 5.88656C12.5781 6.56219 11.8398 6.9 10.9773 6.9C10.8335 6.9 10.6506 6.88203 10.4284 6.84609C10.2063 6.81016 10.0233 6.77062 9.87955 6.7275C10.2324 6.2675 10.5036 5.75719 10.693 5.19656C10.8825 4.63594 10.9773 4.05375 10.9773 3.45C10.9773 2.84625 10.8825 2.26406 10.693 1.70344C10.5036 1.14281 10.2324 0.6325 9.87955 0.1725C10.0625 0.100625 10.2455 0.0539062 10.4284 0.0323437C10.6114 0.0107812 10.7943 0 10.9773 0C11.8398 0 12.5781 0.337812 13.1923 1.01344C13.8065 1.68906 14.1136 2.50125 14.1136 3.45Z" fill="#DD730E"/>
</svg>
