<svg width="25" height="29" viewBox="0 0 25 29" fill="none" xmlns="http://www.w3.org/2000/svg">
<path d="M12.5 29C10.7639 29 9.13773 28.672 7.62153 28.0161C6.10532 27.3601 4.78588 26.474 3.66319 25.3577C2.54051 24.2415 1.64931 22.9296 0.989583 21.422C0.329861 19.9145 0 18.2976 0 16.5714H2.77778C2.77778 19.2643 3.72107 21.5486 5.60764 23.4244C7.49421 25.3002 9.79167 26.2381 12.5 26.2381C15.2083 26.2381 17.5058 25.3002 19.3924 23.4244C21.2789 21.5486 22.2222 19.2643 22.2222 16.5714C22.2222 13.8786 21.2789 11.5942 19.3924 9.71845C17.5058 7.84266 15.2083 6.90476 12.5 6.90476H12.2917L14.4444 9.04524L12.5 11.0476L6.94444 5.52381L12.5 0L14.4444 2.00238L12.2917 4.14286H12.5C14.2361 4.14286 15.8623 4.47083 17.3785 5.12679C18.8947 5.78274 20.2141 6.66885 21.3368 7.78512C22.4595 8.90139 23.3507 10.2133 24.0104 11.7208C24.6701 13.2284 25 14.8452 25 16.5714C25 18.2976 24.6701 19.9145 24.0104 21.422C23.3507 22.9296 22.4595 24.2415 21.3368 25.3577C20.2141 26.474 18.8947 27.3601 17.3785 28.0161C15.8623 28.672 14.2361 29 12.5 29ZM9.02778 20.7143V18.6429H13.1944V17.2619H9.02778V12.4286H15.2778V14.5H11.1111V15.881H13.8889C14.2824 15.881 14.6123 16.0133 14.8785 16.278C15.1447 16.5427 15.2778 16.8706 15.2778 17.2619V19.3333C15.2778 19.7246 15.1447 20.0526 14.8785 20.3173C14.6123 20.5819 14.2824 20.7143 13.8889 20.7143H9.02778Z" fill="#DB8F5A"/>
</svg>
