<svg width="14" height="17" viewBox="0 0 14 17" fill="none" xmlns="http://www.w3.org/2000/svg">
<path d="M7 11.9C5.99375 11.9 5.05312 12.0487 4.17812 12.3463C3.30312 12.6438 2.49375 13.0617 1.75 13.6V15.3H12.25V13.6C11.5062 13.0617 10.6969 12.6438 9.82187 12.3463C8.94687 12.0487 8.00625 11.9 7 11.9ZM1.75 17C1.26875 17 0.856771 16.8335 0.514062 16.5006C0.171354 16.1677 0 15.7675 0 15.3V1.7C0 1.2325 0.171354 0.832292 0.514062 0.499375C0.856771 0.166458 1.26875 0 1.75 0H12.25C12.7312 0 13.1432 0.166458 13.4859 0.499375C13.8286 0.832292 14 1.2325 14 1.7V15.3C14 15.7675 13.8286 16.1677 13.4859 16.5006C13.1432 16.8335 12.7312 17 12.25 17H1.75ZM7 10.2C7.84583 10.2 8.56771 9.90958 9.16562 9.32875C9.76354 8.74792 10.0625 8.04667 10.0625 7.225C10.0625 6.40333 9.76354 5.70208 9.16562 5.12125C8.56771 4.54042 7.84583 4.25 7 4.25C6.15417 4.25 5.43229 4.54042 4.83437 5.12125C4.23646 5.70208 3.9375 6.40333 3.9375 7.225C3.9375 8.04667 4.23646 8.74792 4.83437 9.32875C5.43229 9.90958 6.15417 10.2 7 10.2Z" fill="white"/>
</svg>
