<svg width="17" height="18" viewBox="0 0 17 18" fill="none" xmlns="http://www.w3.org/2000/svg">
<path d="M10.8696 17.0325L7.17391 13.2075L8.3913 11.9475L10.8696 14.5125L15.7826 9.4275L17 10.6875L10.8696 17.0325ZM15.6522 8.1H13.913V3.6H12.1739V6.3H3.47826V3.6H1.73913V16.2H6.95652V18H1.73913C1.26087 18 0.851449 17.8238 0.51087 17.4713C0.17029 17.1188 0 16.695 0 16.2V3.6C0 3.105 0.17029 2.68125 0.51087 2.32875C0.851449 1.97625 1.26087 1.8 1.73913 1.8H5.36957C5.52899 1.275 5.84058 0.84375 6.30435 0.50625C6.76812 0.16875 7.27536 0 7.82609 0C8.4058 0 8.92391 0.16875 9.38043 0.50625C9.83696 0.84375 10.1449 1.275 10.3043 1.8H13.913C14.3913 1.8 14.8007 1.97625 15.1413 2.32875C15.4819 2.68125 15.6522 3.105 15.6522 3.6V8.1ZM7.82609 3.6C8.07246 3.6 8.27899 3.51375 8.44565 3.34125C8.61232 3.16875 8.69565 2.955 8.69565 2.7C8.69565 2.445 8.61232 2.23125 8.44565 2.05875C8.27899 1.88625 8.07246 1.8 7.82609 1.8C7.57971 1.8 7.37319 1.88625 7.20652 2.05875C7.03986 2.23125 6.95652 2.445 6.95652 2.7C6.95652 2.955 7.03986 3.16875 7.20652 3.34125C7.37319 3.51375 7.57971 3.6 7.82609 3.6Z" fill="white"/>
</svg>
